PathFileType  4	(X/Y/Z) /Users/kristensteudel/Documents/NMBL_Research/BertecForceProcessing/anc_files/
DataRate	CameraRate	NumFrames	NumMarkers	Units	OrigDataRate	OrigDataStartFrame	OrigNumFrames
  200.0		  200.0		    6		     46		 mm	  200.0	      1	    477
Frame#	Time	r_knee			r_shank_antsup			r_ankle			r_calc			r_5meta			r_toe			L_knee			L_shank_antsup			L_ankle			L_calc			L_5meta			L_toe			r_sh2			r_sh3			r_sh4			L_sh2			L_sh3			r_thigh1			r_thigh2			r_thigh3			r_thigh4			r_thigh5			L_thigh1			L_thigh2			L_thigh3			L_thigh4			r.ASIS			r.PSIS			L.ASIS			L.PSIS			C7			R_Shoulder			L_Shoulder			Sternum			R_humerus			R_elbow_med			R_elbow_lat			R_forearm			R_wrist_radius			R_wrist_ulna			L_humerus			L_elbow_med			L_elbow_lat			L_forearm			L_wrist_radius			L_wrist_ulna			
		X1	Y1	Z1	X2	Y2	Z2	X3	Y3	Z3	X4	Y4	Z4	X5	Y5	Z5	X6	Y6	Z6	X7	Y7	Z7	X8	Y8	Z8	X9	Y9	Z9	X10	Y10	Z10	X11	Y11	Z11	X12	Y12	Z12	X13	Y13	Z13	X14	Y14	Z14	X15	Y15	Z15	X16	Y16	Z16	X17	Y17	Z17	X18	Y18	Z18	X19	Y19	Z19	X20	Y20	Z20	X21	Y21	Z21	X22	Y22	Z22	X23	Y23	Z23	X24	Y24	Z24	X25	Y25	Z25	X26	Y26	Z26	X27	Y27	Z27	X28	Y28	Z28	X29	Y29	Z29	X30	Y30	Z30	X31	Y31	Z31	X32	Y32	Z32	X33	Y33	Z33	X34	Y34	Z34	X35	Y35	Z35	X36	Y36	Z36	X37	Y37	Z37	X38	Y38	Z38	X39	Y39	Z39	X40	Y40	Z40	X41	Y41	Z41	X42	Y42	Z42	X43	Y43	Z43	X44	Y44	Z44	X45	Y45	Z45	X46	Y46	Z46	

1	0.00500	583.526	584.075	-166.381	510.799	483.481	-159.445	251.592	280.464	-204.991	207.155	339.615	-273.783	203.889	136.985	-194.726	257.078	105.939	-244.272	1123.204	683.122	-468.531	1127.587	555.855	-473.052	1002.808	258.479	-436.398	941.928	242.652	-382.021	1138.528	168.520	-458.682	1176.059	182.850	-391.094	420.862	405.955	-171.481	460.417	536.495	-145.772	370.353	471.057	-176.440	1041.834	584.649	-486.861	1015.006	465.656	-469.030	769.551	734.982	-133.513	707.272	640.652	-157.000	653.805	634.608	-145.331	670.158	787.074	-113.431	614.714	688.703	-147.417	1036.863	895.403	-476.315	1133.328	794.826	-457.244	955.126	815.382	-507.956	1050.062	720.596	-471.822	887.318	1013.355	-181.164	687.521	1094.756	-251.149	888.187	1030.797	-446.663	689.299	1088.572	-358.831	826.619	1569.023	-302.641	926.487	1517.337	-135.048	831.287	1564.223	-494.609	958.706	1447.515	-357.786	924.832	1298.322	-46.730	809.506	1170.790	-38.536	848.642	1207.996	37.237	986.912	1243.002	-69.152	1067.062	1256.756	-142.250	1081.220	1213.295	-121.523	644.890	1436.160	-599.416	501.633	1402.204	-536.298	536.900	1432.838	-619.814	615.980	1285.803	-618.906	700.589	1211.030	-570.538	639.455	1181.314	-601.991
2	0.01000	583.555	586.430	-166.151	508.758	486.877	-159.793	238.961	297.031	-205.517	200.465	357.397	-277.141	183.617	158.292	-192.130	234.401	123.420	-240.792	1118.005	678.186	-468.045	1131.455	550.844	-472.662	1030.147	245.012	-435.715	970.790	225.115	-380.501	1170.895	163.379	-458.981	1207.899	179.667	-391.496	415.715	413.222	-171.753	460.678	541.992	-145.622	367.904	480.489	-176.279	1043.467	573.253	-486.473	1025.288	453.127	-468.392	768.746	738.069	-131.977	707.120	643.108	-154.647	653.427	637.454	-143.897	669.135	790.442	-114.094	613.872	691.671	-146.974	1035.718	891.800	-478.640	1130.356	789.557	-459.357	951.445	812.586	-506.129	1045.218	716.667	-471.016	887.130	1015.476	-180.136	687.786	1097.770	-251.540	888.591	1031.508	-445.366	690.359	1091.099	-359.587	827.333	1570.945	-303.328	928.226	1520.468	-137.019	830.856	1565.661	-491.212	959.309	1450.179	-359.186	926.967	1302.746	-45.855	810.089	1175.981	-35.483	850.164	1213.684	39.527	987.256	1247.185	-68.367	1066.965	1260.190	-142.459	1080.886	1216.746	-121.604	643.407	1438.868	-598.380	501.092	1403.779	-534.686	535.127	1435.684	-617.892	615.721	1289.448	-618.527	701.477	1214.816	-570.710	640.416	1184.638	-601.795
3	0.01500	584.680	587.963	-165.807	508.041	490.453	-159.066	225.731	317.225	-207.458	191.111	377.146	-280.904	164.944	181.992	-189.969	214.263	144.209	-237.860	1111.717	671.157	-467.562	1133.250	545.083	-472.979	1057.346	232.683	-435.394	999.462	210.024	-380.385	1202.265	159.072	-459.513	1238.900	177.501	-392.522	410.842	420.471	-171.917	461.801	546.991	-145.385	366.046	490.350	-176.501	1044.492	560.859	-483.137	1034.975	440.255	-466.695	768.946	740.769	-130.927	708.194	645.262	-152.623	654.320	639.317	-142.833	668.911	792.938	-114.648	614.582	693.217	-146.843	1034.341	887.588	-480.682	1126.887	783.146	-460.260	947.720	809.637	-504.419	1039.667	712.112	-470.004	886.940	1017.737	-178.925	688.035	1100.553	-252.157	889.014	1031.776	-444.029	691.383	1093.162	-360.158	828.073	1572.686	-304.146	929.861	1523.353	-138.759	830.590	1567.352	-492.249	960.080	1452.518	-360.465	928.225	1306.781	-44.935	809.971	1180.731	-32.684	850.978	1219.293	41.698	987.383	1250.491	-67.339	1066.736	1262.110	-142.275	1080.223	1218.690	-121.263	642.728	1440.870	-597.381	501.177	1404.807	-533.106	534.082	1437.866	-616.187	616.010	1292.355	-618.260	702.788	1217.814	-570.954	641.754	1187.133	-601.739
4	0.02000	586.680	588.872	-165.046	505.853	492.385	-158.932	215.392	338.296	-209.341	183.755	397.154	-285.044	148.972	206.565	-188.217	197.623	165.515	-233.951	1104.263	662.402	-467.101	1133.690	538.749	-473.946	1083.595	221.615	-435.173	1027.389	196.632	-379.262	1232.163	155.847	-460.225	1268.282	176.774	-393.750	405.444	428.658	-174.202	463.486	551.919	-144.469	364.910	500.742	-176.871	1044.171	547.944	-481.587	1046.375	425.774	-464.118	769.962	742.926	-130.243	709.799	646.753	-150.681	656.566	640.185	-142.049	669.325	794.299	-115.585	616.244	693.693	-146.865	1032.843	882.552	-482.401	1122.538	776.564	-459.850	943.747	806.557	-502.279	1033.857	706.922	-468.513	886.872	1019.998	-177.584	688.147	1103.033	-252.613	890.142	1032.138	-442.860	692.228	1095.050	-360.581	829.148	1574.297	-305.294	931.176	1526.460	-140.192	831.286	1568.392	-493.114	960.735	1454.577	-361.492	929.083	1310.660	-43.679	808.776	1185.958	-30.087	850.727	1224.780	43.660	987.289	1252.733	-66.177	1066.435	1262.565	-141.696	1079.305	1219.040	-120.429	642.597	1442.324	-596.588	501.803	1405.163	-531.904	533.689	1439.486	-614.780	616.891	1294.594	-618.141	704.492	1219.953	-571.118	643.589	1188.841	-601.771
5	0.02500	589.662	589.272	-164.345	504.198	495.395	-158.325	204.353	360.699	-210.718	178.026	417.334	-289.810	136.360	231.830	-187.167	179.380	184.039	-229.420	1096.095	652.256	-467.232	1131.742	532.185	-474.311	1108.162	212.649	-435.186	1053.999	185.241	-378.793	1259.913	153.273	-460.935	1295.829	177.105	-394.796	400.690	437.820	-174.545	465.323	557.257	-143.548	364.369	511.903	-177.497	1041.931	533.291	-480.262	1054.935	412.861	-460.820	771.866	744.615	-129.931	713.224	647.500	-150.117	660.074	640.335	-141.576	670.575	794.790	-116.302	618.854	693.252	-146.714	1031.533	876.969	-482.978	1118.302	769.070	-458.985	940.080	803.627	-500.620	1027.061	700.721	-467.370	886.801	1022.157	-176.352	688.341	1105.249	-253.066	888.492	1031.134	-441.185	692.843	1097.038	-361.191	830.471	1575.720	-306.018	932.151	1528.909	-141.659	831.791	1569.303	-495.034	961.190	1456.339	-362.334	929.281	1314.447	-42.255	806.744	1190.846	-27.803	849.654	1230.142	45.362	986.827	1254.095	-64.882	1065.958	1261.480	-140.721	1077.759	1217.765	-119.100	643.061	1442.985	-596.016	502.751	1404.885	-531.218	533.995	1440.213	-613.684	618.362	1295.975	-618.146	706.670	1221.274	-571.187	646.065	1189.771	-601.969
6	0.03000	593.627	588.947	-163.826	503.131	499.555	-157.025	196.908	382.520	-212.743	173.317	438.424	-293.616	123.795	256.977	-185.982	168.018	207.269	-226.501	1088.574	642.332	-467.294	1129.580	524.730	-474.550	1130.326	204.988	-435.057	1078.732	175.789	-378.093	1285.073	151.291	-461.740	1320.561	178.516	-397.178	396.500	447.886	-175.220	467.611	563.241	-143.166	364.674	523.928	-178.233	1039.654	517.797	-479.993	1062.527	400.433	-458.775	774.812	745.671	-129.767	717.756	647.681	-150.343	664.458	639.762	-141.389	672.722	794.561	-116.826	622.425	692.075	-146.423	1030.588	870.784	-482.974	1114.184	759.769	-457.335	936.613	800.396	-499.947	1020.803	694.514	-467.183	887.084	1024.255	-175.294	688.520	1107.036	-253.315	888.363	1030.627	-439.958	693.496	1098.232	-361.243	831.906	1576.871	-306.808	932.841	1531.078	-143.013	833.152	1569.451	-496.494	961.839	1457.752	-363.075	928.870	1318.094	-40.631	804.269	1196.071	-25.566	847.657	1235.324	46.877	985.617	1254.398	-63.437	1065.115	1258.778	-139.308	1075.744	1215.141	-117.202	644.096	1442.895	-595.887	504.540	1403.816	-530.662	535.198	1440.068	-612.811	620.314	1296.491	-618.274	709.322	1221.547	-571.411	648.941	1189.633	-602.200
